<svg xmlns="http://www.w3.org/2000/svg" width="156" height="36" fill="none"><g clip-path="url(#a)"><path fill="#fff" d="M36.002 0h-36v36h36z"/><path fill="#00ABEB" d="M.002 0v36h36V0zm35.77 35.772H27V27h8.77zm0-17.77a18 18 0 0 0-17.768 17.77h-9a27 27 0 0 1 26.768-26.77z"/><path fill="#fff" d="M50.348 20.973h-.864v5.693h.864zM54.212 26.666v-2.47c0-.631-.36-.904-.817-.904-.455 0-.84.281-.84.905v2.47h-.814v-4.054h.8v.406a1.45 1.45 0 0 1 1.074-.454c.368-.013.727.118 1 .366a1.49 1.49 0 0 1 .407 1.141v2.58h-.814M57.754 23.292c-.735 0-.849.623-.849 1.343s.114 1.352.85 1.352c.734 0 .84-.632.84-1.352s-.106-1.343-.84-1.343m.86 3.374v-.43a1.25 1.25 0 0 1-1.075.48 1.4 1.4 0 0 1-.993-.36c-.408-.408-.455-1.102-.455-1.719s.047-1.302.455-1.72c.269-.243.622-.372.985-.358a1.26 1.26 0 0 1 1.063.453v-2.04h.815v5.694zM63.15 26.666v-.406a1.45 1.45 0 0 1-1.074.453 1.42 1.42 0 0 1-1-.365 1.5 1.5 0 0 1-.407-1.144v-2.592h.816v2.47c0 .645.36.905.815.905s.84-.282.84-.905v-2.47h.817v4.054h-.802M66.56 26.713c-.665 0-1.225-.112-1.705-.582l.535-.536a1.58 1.58 0 0 0 1.17.43c.494 0 .887-.176.887-.56 0-.272-.152-.448-.546-.48l-.644-.056c-.76-.064-1.2-.408-1.2-1.12 0-.79.68-1.238 1.528-1.238.609 0 1.129.127 1.505.454l-.512.52a1.53 1.53 0 0 0-1-.295c-.487 0-.734.215-.734.52 0 .24.127.43.559.465l.644.056c.76.064 1.206.43 1.206 1.143 0 .847-.72 1.29-1.685 1.29M70.366 26.666a1.053 1.053 0 0 1-1.111-1.126v-2.233h-.465v-.623h.465v-1.232h.812v1.232h.785v.623h-.785v2.192a.41.41 0 0 0 .447.47h.338v.697h-.488M74.123 23.564a.75.75 0 0 0-.606-.273c-.44 0-.808.353-.808.912v2.463h-.817v-4.054h.8v.44a1.35 1.35 0 0 1 1.074-.487 1.26 1.26 0 0 1 .967.383l-.617.616M75.404 26.666v-4.053h.814v4.053zm.84-4.855h-.86v-.86h.86zM79.68 24.876h-.95c-.478 0-.728.215-.728.582 0 .368.232.579.744.579a.98.98 0 0 0 .76-.233.82.82 0 0 0 .175-.6zm.018 1.79V26.3a1.33 1.33 0 0 1-1.075.415c-.505 0-.84-.119-1.087-.366a1.25 1.25 0 0 1-.32-.872c0-.68.47-1.168 1.399-1.168h1.074v-.288c0-.511-.253-.76-.887-.76-.447 0-.662.105-.886.39l-.541-.502c.384-.447.784-.583 1.455-.583 1.113 0 1.672.471 1.672 1.391v2.71zM82.84 26.666c-.776 0-1.11-.518-1.11-1.12v-4.573h.816v4.526c0 .312.112.47.43.47h.36v.697h-.504M87.863 21.749v4.917H87v-4.917h-1.567v-.776h3.998v.776zM91.94 23.756a.83.83 0 0 0-.797-.511.85.85 0 0 0-.808.511 1.3 1.3 0 0 0-.106.552h1.825c.004-.19-.035-.379-.114-.552m-1.72 1.12c0 .696.37 1.135 1.032 1.135a1.22 1.22 0 0 0 .985-.415l.52.488a1.9 1.9 0 0 1-1.52.63c-1.016 0-1.824-.536-1.824-2.079 0-1.31.681-2.07 1.72-2.07 1.087 0 1.719.8 1.719 1.95v.36zM95.54 26.714c-.911 0-1.807-.56-1.807-2.079s.896-2.07 1.807-2.07a1.67 1.67 0 0 1 1.337.568l-.56.544a.94.94 0 0 0-.777-.385.92.92 0 0 0-.756.35c-.174.215-.241.514-.241.985 0 .47.067.77.24.993a.92.92 0 0 0 .753.358.95.95 0 0 0 .776-.382l.56.535a1.67 1.67 0 0 1-1.336.574M100.275 26.666v-2.487c0-.614-.361-.887-.817-.887s-.823.281-.823.887v2.487h-.817v-5.693h.817v2.046a1.4 1.4 0 0 1 1.047-.454c.905 0 1.408.606 1.408 1.485v2.616zM104.816 26.666v-2.47c0-.631-.359-.904-.814-.904-.456 0-.841.281-.841.905v2.47h-.814v-4.054h.799v.406a1.45 1.45 0 0 1 1.075-.454 1.4 1.4 0 0 1 .999.366 1.5 1.5 0 0 1 .409 1.145v2.58h-.817M108.984 23.523a.82.82 0 0 0-.6-.232.8.8 0 0 0-.593.232c-.247.25-.279.673-.279 1.111 0 .439.032.86.279 1.112a.8.8 0 0 0 .593.24.83.83 0 0 0 .6-.24c.247-.247.279-.67.279-1.111s-.032-.86-.279-1.112m.615 2.71a1.77 1.77 0 0 1-2.423 0c-.384-.4-.479-.91-.479-1.599 0-.687.095-1.19.479-1.59a1.77 1.77 0 0 1 2.423 0c.384.4.479.911.479 1.59 0 .68-.095 1.2-.479 1.6M112.27 26.666c-.776 0-1.111-.518-1.111-1.12v-4.573h.819v4.526c0 .312.111.47.43.47h.358v.697h-.502M115.606 23.524a.83.83 0 0 0-.602-.232.8.8 0 0 0-.591.232c-.247.25-.28.673-.28 1.111 0 .439.033.86.28 1.111a.8.8 0 0 0 .591.241.84.84 0 0 0 .602-.24c.247-.248.277-.671.277-1.112 0-.44-.03-.86-.277-1.111m.614 2.71a1.64 1.64 0 0 1-1.216.48 1.62 1.62 0 0 1-1.208-.48c-.383-.4-.477-.911-.477-1.599s.094-1.19.477-1.59a1.62 1.62 0 0 1 1.208-.48 1.64 1.64 0 0 1 1.216.48c.383.4.48.911.48 1.59 0 .68-.097 1.2-.48 1.6M119.259 23.292c-.735 0-.831.631-.831 1.272 0 .64.096 1.27.831 1.27s.824-.63.824-1.27-.089-1.272-.824-1.272m-.096 5.061a1.88 1.88 0 0 1-1.432-.535l.52-.52a1.14 1.14 0 0 0 .882.36c.687 0 .95-.487.95-1.03v-.52a1.25 1.25 0 0 1-1.047.463 1.34 1.34 0 0 1-.967-.359c-.394-.393-.456-.96-.456-1.648s.062-1.257.456-1.649c.266-.24.617-.367.975-.35a1.24 1.24 0 0 1 1.062.48v-.43h.793v4.036c0 .982-.655 1.702-1.736 1.702M123.465 27.474c-.06.188-.16.36-.294.505a1.14 1.14 0 0 1-.834.297h-.327v-.737h.215c.342 0 .465-.106.585-.43l.215-.632-1.416-3.869h.859l.967 2.855.944-2.855h.86l-1.791 4.862M51.629 30.603h-1.29v1.784h1.29c.574 0 .967-.329.967-.887 0-.56-.393-.897-.967-.897m1 4.918-1.2-2.399h-1.075v2.399h-.86v-5.696h2.197c1.075 0 1.769.697 1.769 1.666a1.504 1.504 0 0 1-1.137 1.504l1.311 2.52zM56.937 32.61a.83.83 0 0 0-.8-.513.84.84 0 0 0-.805.514 1.26 1.26 0 0 0-.105.55h1.822a1.25 1.25 0 0 0-.112-.55m-1.719 1.12c0 .695.368 1.135 1.032 1.135a1.22 1.22 0 0 0 .984-.414l.52.487a1.9 1.9 0 0 1-1.521.63c-1.015 0-1.823-.535-1.823-2.078 0-1.311.681-2.072 1.72-2.072 1.087 0 1.719.8 1.719 1.952v.36zM60.25 35.568c-.665 0-1.226-.112-1.705-.583l.537-.535a1.57 1.57 0 0 0 1.167.43c.495 0 .888-.176.888-.561 0-.27-.15-.447-.544-.48l-.645-.055c-.758-.065-1.199-.409-1.199-1.12 0-.791.68-1.24 1.528-1.24.609 0 1.129.127 1.505.456l-.527.513a1.54 1.54 0 0 0-1-.297c-.487 0-.734.216-.734.52 0 .241.127.43.559.465l.644.056c.76.064 1.208.43 1.208 1.143 0 .85-.72 1.29-1.687 1.29M65.24 32.61a.886.886 0 0 0-1.608 0 1.26 1.26 0 0 0-.105.551h1.825a1.3 1.3 0 0 0-.112-.55m-1.72 1.12c0 .695.37 1.135 1.032 1.135a1.22 1.22 0 0 0 .985-.414l.52.487a1.9 1.9 0 0 1-1.52.63c-1.016 0-1.822-.535-1.822-2.078 0-1.311.679-2.072 1.719-2.072 1.09 0 1.72.8 1.72 1.952v.36zM69.405 33.73h-.952c-.48 0-.726.216-.726.583s.232.576.743.576a.96.96 0 0 0 .76-.232.8.8 0 0 0 .175-.6zm.017 1.79v-.367a1.34 1.34 0 0 1-1.074.415 1.44 1.44 0 0 1-1.088-.367 1.24 1.24 0 0 1-.32-.873c0-.68.473-1.167 1.4-1.167h1.074v-.277c0-.512-.256-.759-.888-.759-.447 0-.664.103-.887.391l-.535-.503c.384-.449.784-.584 1.454-.584 1.114 0 1.673.47 1.673 1.39v2.713zM73.708 32.417a.76.76 0 0 0-.608-.271c-.43 0-.808.35-.808.911v2.463h-.815v-4.053h.8v.43a1.35 1.35 0 0 1 1.074-.488 1.26 1.26 0 0 1 .968.382l-.615.617M76.339 35.568c-.912 0-1.808-.558-1.808-2.078s.896-2.072 1.808-2.072a1.66 1.66 0 0 1 1.337.57l-.561.541a.94.94 0 0 0-.776-.382.92.92 0 0 0-.752.359c-.177.215-.239.513-.239.984 0 .47.062.767.239.99a.92.92 0 0 0 .752.36.94.94 0 0 0 .776-.383l.56.535a1.67 1.67 0 0 1-1.336.576M81.074 35.52v-2.486c0-.617-.36-.888-.817-.888-.458 0-.823.28-.823.888v2.487h-.815v-5.696h.815v2.048a1.4 1.4 0 0 1 1.049-.455c.902 0 1.407.608 1.407 1.487v2.616zM85.705 29.825h-.864v5.696h.864zM89.565 35.52v-2.47c0-.633-.359-.903-.814-.903-.456 0-.84.279-.84.902v2.472h-.815v-4.054h.81v.407a1.45 1.45 0 0 1 1.075-.456c.368-.013.727.119.999.367a1.48 1.48 0 0 1 .408 1.146v2.59h-.816M92.948 35.568c-.662 0-1.223-.112-1.702-.583l.535-.535a1.58 1.58 0 0 0 1.167.43c.497 0 .888-.176.888-.561 0-.27-.15-.447-.542-.48l-.645-.055c-.758-.065-1.199-.409-1.199-1.12 0-.791.68-1.24 1.528-1.24.609 0 1.127.127 1.505.456l-.512.52a1.54 1.54 0 0 0-1-.297c-.487 0-.734.215-.734.52 0 .24.127.43.559.464l.644.056c.759.065 1.206.43 1.206 1.144 0 .849-.718 1.29-1.687 1.29M96.757 35.52a1.056 1.056 0 0 1-1.114-1.132v-2.226h-.462v-.624h.462v-1.233h.817v1.231h.785v.624h-.785v2.192a.41.41 0 0 0 .447.47h.338v.697h-.488M98.283 35.52v-4.053h.816v4.053zm.84-4.855h-.86v-.86h.86zM101.601 35.52a1.06 1.06 0 0 1-1.048-.687 1.05 1.05 0 0 1-.063-.44v-2.231h-.462v-.624h.462v-1.233h.817v1.231h.784v.624h-.784v2.192a.404.404 0 0 0 .263.447q.088.033.184.023h.337v.697h-.49M105.577 35.52v-.408a1.45 1.45 0 0 1-1.074.456 1.4 1.4 0 0 1-1-.368 1.496 1.496 0 0 1-.408-1.143v-2.59h.817v2.47c0 .631.358.902.816.902s.838-.277.838-.903v-2.47h.817v4.054h-.799M108.879 35.52a1.05 1.05 0 0 1-1.049-.687 1.1 1.1 0 0 1-.063-.44v-2.231h-.464v-.624h.464v-1.233h.817v1.231h.782v.624h-.782v2.192a.41.41 0 0 0 .108.345.4.4 0 0 0 .339.125h.335v.697h-.487M112.696 32.61a.89.89 0 0 0-.804-.513.88.88 0 0 0-.804.514 1.25 1.25 0 0 0-.105.55h1.824a1.3 1.3 0 0 0-.111-.55m-1.72 1.12c0 .695.37 1.135 1.032 1.135a1.22 1.22 0 0 0 .984-.414l.52.487a1.9 1.9 0 0 1-1.519.63c-1.017 0-1.823-.535-1.823-2.078 0-1.311.679-2.072 1.72-2.072 1.074 0 1.719.8 1.719 1.952v.36zM153.796 12.381c-.06 1.092-.022 1.63-.114 1.881-.093.251-.174.333-.697.333s-.659-.045-.659-.288v-3.991h1.173q.728-.01 1.449.088V8.842a9 9 0 0 1-1.449.075h-5.414a9 9 0 0 1-1.352-.075v1.538a9.5 9.5 0 0 1 1.457-.073h.202c-.04 1.318-.472 2.33-1.008 2.962-.597.722-1.192 1.29-2.637 1.782.395.35.722.767.968 1.233 1.601-.713 2.525-1.564 3.114-2.465.599-.97.963-1.95 1.089-3.512h.905v4.632c0 .86.51 1.133 2.122 1.122 1.934-.02 2.31-.301 2.364-3.203a4.8 4.8 0 0 1-1.505-.477m-7.307-1.195a6.1 6.1 0 0 0-.344-1.897 7.7 7.7 0 0 0-.929-1.737c.733-1.734.763-1.734 1.18-2.886v1.212c0 .294-.017.73-.03.86a2 2 0 0 1-.03.266h1.389v.759a9 9 0 0 1 1.182-.058h3.484q.593-.01 1.182.058v-.738h1.42a8 8 0 0 1-.06-1.091V4.739q-.014-.541.06-1.075a9 9 0 0 1-1.332.075h-2.332v-.412a5 5 0 0 1 .073-1.032h-1.81q.08.49.076.989v.453h-1.898c-.43 0-.789-.015-1.075-.026a.3.3 0 0 0 .026-.045l-.686-.78a4 4 0 0 1-.907.06h-2.248a9 9 0 0 1-1.046-.047c.032.462.047.86.047 1.36v10.274q.007.862-.093 1.72h1.677a12.5 12.5 0 0 1-.075-1.688V4.369h1.48a23 23 0 0 1-1.257 3.348q.493.604.86 1.29c.317.555.501 1.176.537 1.814 0 .524-.105.645-.597.645q-.4 0-.796-.06c.241.39.329.767.377 1.573.494.01.988-.045 1.467-.166.695-.204 1.026-.745 1.026-1.627zm1.416-6.018h5.472v1.103a8 8 0 0 1-.986.032h-3.486c-.523 0-.766-.013-1.002-.032zM92.688 9.94q.38-.523.67-1.098l-.825-.903A6.5 6.5 0 0 1 91.46 8h-1.475V5.938h2.025q.856-.004 1.707.09V4.37q-.851.097-1.707.09h-2.025v-.44a11 11 0 0 1 .076-1.548h-1.78q.115.777.09 1.563v.43h-1.474q-.852.007-1.7-.078v1.631c.43-.04 1.03-.07 1.72-.07h1.456V8.01h-1.525a11 11 0 0 1-1.505-.093V9.5c.269-.028.357-.028.597-.043.57 1.42 1.23 2.268 2.188 3.36a12.5 12.5 0 0 1-4.07 2.005c.313.443.574.921.778 1.425a13.2 13.2 0 0 0 4.333-2.364 14.7 14.7 0 0 0 4.038 2.405c.191-.568.45-.948.924-1.56a12.2 12.2 0 0 1-3.83-1.886c.946-1.036 1.578-1.704 2.388-2.901m-3.458 1.859c-.69-.752-1.255-1.449-1.657-2.364h3.675a11.4 11.4 0 0 1-2.018 2.364m10.067-.359c-.155.875-.405 1.73-.748 2.549q.69.31 1.341.698c.701-2.101.972-4.298 1.075-6.643l-1.36-.193a29 29 0 0 1-.308 3.589m5.311-3.615-1.3.324c.414 1.464.717 3.224.971 5.507l1.365-.43a44 44 0 0 0-1.028-5.401zm33.507 6.278c-.106.303-.032.346-1.139.346-.538 0-.671-.09-.658-.48l.043-2.759c.017-.7.034-.954.06-1.343q-.782.076-1.569.06h-2.149c0-.2.028-.516.045-.742.058-.836.058-.924.135-1.207h-1.777q.066.426.062.86a9 9 0 0 1-.049 1.095h-2.592q-.826.014-1.644-.088v1.642q.835-.098 1.676-.075h2.238c-.245 1.088-2.023 2.84-4.66 3.48.522.597.632.72.935 1.347 1.554-.552 2.691-1.169 3.585-2.01s1.537-1.66 1.81-2.817h2.293l-.048 3.043v.104c0 1.094.45 1.377 2.279 1.377 2.794 0 2.643-.103 2.882-3.653a6 6 0 0 1-1.569-.51c-.013 1.197-.086 1.982-.189 2.33M116.16 7.675q-.45.046-.9.042h-1.806c.436-1.026.711-2.113.815-3.223h.776q.7-.009 1.397.062V2.948a8 8 0 0 1-1.436.088h-2.616q-.727.007-1.448-.088v1.617a9 9 0 0 1 1.354-.078h.511c-.105 1.864-1.141 4.026-2.729 5.56.229.614.395 1.249.494 1.896a14.5 14.5 0 0 0 1.322-1.685c-.028.81-.024.776-.024 1.36v2.627q.009.766-.09 1.526h1.586v-1.384h1.339v.683h1.455a10 10 0 0 1-.045-1.165V8.762a8 8 0 0 1 .045-1.088m-1.442 5.396h-1.352V9.125h1.352zm-8.864-6.503a8 8 0 0 1-.958-.067c0-.14-.015-.273-.013-.34v-.793q-.606.086-1.216.063h-.688V4.12a10 10 0 0 1 .09-1.627h-1.691q.114.809.092 1.627v1.31h-.782q-.684.015-1.36-.072v1.02l-.192-.111-1.04-.598a8 8 0 0 1-.596 1.172c-.617 1.048-1.427 1.794-2.385 2.66.255.495.457 1.015.601 1.552a7.2 7.2 0 0 0 1.002-1.017v4.445q.005.864-.118 1.72h1.663a12 12 0 0 1-.075-1.692V8.534q.644-.887 1.14-1.863v.316q.484-.07.973-.063h1.173V14.4q.022.901-.092 1.795h1.691a12 12 0 0 1-.09-1.794V6.924h.675c.331 0 .967.013 1.236.028l.026 1.197q.475-.072.956-.06h.662v6.13c0 .27-.105.346-.479.346a12.4 12.4 0 0 1-1.765-.135c.206.498.323 1.03.346 1.569.733.03.909.03 1.195.03a5.3 5.3 0 0 0 1.505-.15c.496-.192.689-.596.689-1.39v-6.4q.647-.015 1.29.06V6.49a6.3 6.3 0 0 1-1.225.078zm20.532.17h1.629V5.043h2.446a2.37 2.37 0 0 1-.819 1.685c-.554.477-1.115.718-2.908 1.044.349.42.649.88.895 1.367 1.893-.445 2.953-1.016 3.643-1.975.404-.557.606-1.13.844-2.121h1.161v2.381c0 .86.43 1.105 1.988 1.105 1.436 0 1.975-.06 2.321-.215.43-.198.61-.402.731-1.238l.069-.378h1.113a8 8 0 0 1-.062-1.107v-.96a8 8 0 0 1 .062-1.112q-.82.085-1.642.07h-4.191v-.313a4 4 0 0 1 .073-.946h-1.825q.1.468.09.946v.314h-3.959q-.823.014-1.644-.071.069.554.06 1.111v1.025a7.4 7.4 0 0 1-.083 1.081zm8.423-1.694h3.071v.997l-.03.391a8 8 0 0 1-.99-.26c.012.243-.023.486-.104.716-.107.191-.27.266-1.005.266-.819 0-.942-.04-.942-.374zm-11.885 2.944V4.442q.776-.018 1.545.075V2.888q-.798.1-1.601.09h-4.318a10 10 0 0 1-1.642-.09v1.625a9 9 0 0 1 1.303-.075v3.546a10.6 10.6 0 0 1-1.578-.077v1.678a11 11 0 0 1 1.55-.073 12 12 0 0 1-.258 2.364 7.5 7.5 0 0 1-1.733 3.44c.519.233.973.588 1.324 1.035 1-1.26 2.107-3.134 2.199-6.837h1.681v4.944q.002.908-.091 1.813h1.72a15 15 0 0 1-.108-1.826V9.512h.121q.79-.022 1.575.073V7.911a10.3 10.3 0 0 1-1.575.077zm-1.528 0h-1.653V4.442h1.653zm-16.12-3.376.123-.056v.365a7 7 0 0 1 1.165-.077h1.375q.586-.012 1.165.077V3.247a6 6 0 0 1-1.165.073h-1.375q-.586.017-1.165-.073v1.148l-.095-.19a19 19 0 0 0-1.023-1.605l-1.137.645c.439.6.805 1.249 1.092 1.934zm-31.944 7.963h3.009q.9-.005 1.797.088v-1.487q-.904.105-1.812.09h-4.178v-.819h3.125q.773-.017 1.54.075V9.177a11 11 0 0 1-1.54.073h-3.125v-.8h3.9a11 11 0 0 1 1.542.073V7.107q-.77.069-1.541.058h-1.733a9 9 0 0 0 .553-1.004h1.504c.733 0 1.316.033 1.78.078V4.734a12.5 12.5 0 0 1-1.69.086h-.416c.326-.462.541-.915.898-1.504l-1.541-.565c-.248.74-.601 1.44-1.047 2.08h-.943V3.666q-.006-.586.073-1.167H71.85c.028.284.043.628.043 1.107v1.225h-1.062V3.606q-.006-.555.046-1.107H69.25q.073.581.07 1.167v1.165h-.849c-.43-.896-.618-1.333-1.126-2.035l-1.493.565c.397.441.73.936.988 1.47h-.477q-.856.013-1.704-.086V6.25c.479-.046 1.046-.078 1.78-.078h1.611q.305.488.557 1.004h-1.812a15 15 0 0 1-1.539-.058v1.416q.766-.09 1.54-.073h3.737v.78h-2.96q-.766.019-1.526-.073v1.363a11 11 0 0 1 1.526-.075h2.96v.812h-3.96a14 14 0 0 1-1.794-.092v1.504a17 17 0 0 1 1.81-.088h2.779c-1.099.922-2.921 1.599-5.01 1.975.368.434.674.916.909 1.434a14.3 14.3 0 0 0 3.054-1.256 14 14 0 0 0 2.274-1.719c0 .333-.024 1.11-.024 1.11l-.023.687q.006.766-.086 1.526h1.754q-.122-.747-.106-1.505l-.017-.702s-.026-.821-.028-1.154c1.115 1.152 3.035 2.338 5.545 3.024.208-.548.498-1.061.86-1.522a15 15 0 0 1-3.123-.838 9.6 9.6 0 0 1-2.016-1.077m-3.142-5.41a8 8 0 0 0-.445-1.004h3.406a8 8 0 0 1-.494 1.004zm14.767 1.386-1.255.43v-2.34h.215q.459-.001.913.062V5.132a6 6 0 0 1-.898.06h-.239V4.02a9.6 9.6 0 0 1 .09-1.56h-1.777q.099.784.09 1.575v1.158h-.612a6.6 6.6 0 0 1-1.17-.088v1.612a9 9 0 0 1 1.153-.075h.636v2.895c-1.075.316-1.345.43-1.872.475l.329 1.62c.165-.08.419-.146.63-.215q.259-.065.507-.165a4 4 0 0 0 .406-.13v3.141c0 .406-.09.466-.587.466a7.7 7.7 0 0 1-1.21-.12c.21.494.331 1.02.361 1.556.465.03.701.043 1.06.043 1.584 0 1.973-.284 1.973-1.479V10.48c.48-.191.48-.146 1.255-.449zm14.51-5.394-1.333-.774c-.43.86-1.685 1.999-2.875 2.715.293.434.52.909.674 1.41 1.193-.654 2.833-2.098 3.534-3.351M56.673 13.7V5.803h3.293q.962-.005 1.919.094V4.135q-.964.1-1.934.09h-8.045q-.976.014-1.945-.09v1.764q.964-.102 1.934-.094h3.022V13.7h-3.744a16 16 0 0 1-2.063-.103v1.805a18 18 0 0 1 2.035-.103h9.534q1.021-.012 2.038.103v-1.805q-1.015.117-2.038.103z"/></g><defs><clipPath id="a"><path fill="#fff" d="M0 0h155.295v36H0z"/></clipPath></defs></svg>